<?xml version="1.0" standalone="no"?>
<!DOCTYPE svg PUBLIC "-//W3C//DTD SVG 20010904//EN"
 "http://www.w3.org/TR/2001/REC-SVG-20010904/DTD/svg10.dtd">
<svg version="1.0" xmlns="http://www.w3.org/2000/svg"
 width="512.000000pt" height="512.000000pt" viewBox="0 0 512.000000 512.000000"
 preserveAspectRatio="xMidYMid meet">
<metadata>
Created by potrace 1.11, written by Peter Selinger 2001-2013
</metadata>
<g transform="translate(0.000000,512.000000) scale(0.100000,-0.100000)"
fill="#000000" stroke="none">
<path d="M1745 4424 c-11 -2 -317 -38 -680 -79 -363 -42 -673 -81 -688 -87
-46 -18 -57 -53 -57 -182 l0 -114 -135 -4 c-124 -3 -136 -5 -157 -26 l-23 -23
-3 -1580 -2 -1580 29 -30 29 -29 2502 0 2502 0 29 29 29 30 -2 1580 -3 1580
-23 23 c-21 21 -33 23 -157 26 l-135 4 0 114 c0 129 -11 164 -57 182 -39 15
-1312 163 -1459 169 -208 9 -447 -32 -635 -110 l-86 -36 -101 40 c-114 45
-269 84 -392 99 -78 9 -278 12 -325 4z m420 -209 c87 -19 218 -62 268 -87 l37
-18 0 -1390 c0 -765 -1 -1390 -2 -1390 -2 0 -43 14 -92 30 -174 58 -369 86
-546 77 -63 -3 -382 -38 -709 -76 -327 -39 -598 -71 -603 -71 -4 0 -8 630 -8
1400 0 1113 3 1400 13 1401 6 0 287 33 622 74 584 71 617 74 780 70 103 -2
198 -10 240 -20z m1763 -45 c328 -38 616 -72 640 -75 l42 -6 0 -1400 c0 -769
-2 -1399 -5 -1399 -3 0 -274 32 -603 71 -328 38 -649 73 -712 76 -177 9 -377
-19 -548 -78 -48 -16 -88 -29 -89 -29 -2 0 -2 627 -1 1393 l3 1392 83 33 c45
18 117 42 160 53 223 56 310 53 1030 -31z m-3608 -1711 l0 -1311 29 -29 c19
-18 40 -29 58 -29 16 0 336 36 711 80 410 48 721 80 780 80 184 0 379 -43 551
-120 49 -22 99 -40 111 -40 12 0 62 18 111 40 172 77 367 120 551 120 59 0
370 -32 780 -80 375 -44 695 -80 711 -80 18 0 39 11 58 29 l29 29 0 1311 0
1311 65 0 65 0 0 -1445 0 -1445 -2370 0 -2370 0 0 1445 0 1445 65 0 65 0 0
-1311z"/>
<path d="M1755 3933 c-230 -23 -1050 -125 -1065 -133 -11 -6 -27 -24 -36 -41
-33 -64 13 -129 91 -129 23 0 273 27 556 61 466 55 526 60 644 55 72 -3 162
-13 200 -22 131 -29 147 -29 183 1 26 21 32 34 32 65 0 62 -27 85 -128 109
-151 35 -334 48 -477 34z"/>
<path d="M1790 3504 c-188 -17 -1088 -128 -1103 -136 -25 -13 -50 -74 -41
-101 9 -29 34 -57 61 -68 14 -5 205 14 530 53 567 69 728 76 893 44 154 -31
171 -31 203 -2 20 19 27 34 27 63 0 75 -39 97 -219 127 -93 16 -278 26 -351
20z"/>
<path d="M1225 3009 c-275 -33 -512 -64 -527 -70 -33 -13 -61 -69 -52 -104 7
-27 57 -75 78 -75 7 0 242 27 522 61 564 68 714 75 874 44 158 -31 185 -31
214 -2 20 20 26 36 26 67 0 59 -29 83 -121 103 -243 54 -382 51 -1014 -24z"/>
<path d="M1222 2576 c-484 -58 -524 -64 -546 -85 -32 -30 -39 -64 -23 -103 29
-68 9 -68 605 1 501 59 547 63 687 58 89 -3 180 -13 225 -23 41 -10 90 -18
109 -18 46 1 81 41 81 94 0 71 -69 103 -280 129 -164 21 -311 12 -858 -53z"/>
<path d="M1237 2145 c-570 -67 -569 -67 -590 -128 -12 -37 18 -99 56 -112 21
-7 168 7 570 54 498 59 553 63 677 58 74 -4 167 -13 205 -22 134 -31 141 -31
175 3 38 38 41 88 8 127 -28 31 -92 49 -246 70 -180 24 -288 18 -855 -50z"/>
<path d="M3060 3930 c-41 -5 -116 -19 -166 -30 -99 -23 -129 -43 -139 -95 -7
-38 25 -92 59 -101 14 -3 76 5 138 17 190 40 341 34 905 -34 259 -31 492 -57
518 -57 60 0 95 32 95 87 -1 38 -10 56 -41 81 -22 16 -1008 133 -1169 137 -69
2 -159 0 -200 -5z"/>
<path d="M3085 3500 c-146 -14 -276 -46 -305 -75 -36 -36 -35 -98 3 -131 34
-29 52 -30 180 -2 181 38 328 31 921 -40 463 -56 511 -60 537 -46 34 17 49 42
49 82 0 32 -31 78 -58 86 -34 11 -1030 125 -1132 130 -58 2 -146 1 -195 -4z"/>
<path d="M2965 3051 c-177 -31 -210 -51 -210 -123 0 -32 6 -45 30 -65 33 -29
60 -28 215 2 157 31 301 24 868 -44 282 -34 524 -58 538 -55 34 9 64 50 64 91
0 37 -44 93 -74 93 -9 0 -246 27 -528 60 -573 67 -716 74 -903 41z"/>
<path d="M3050 2633 c-61 -7 -233 -44 -252 -54 -47 -25 -58 -100 -20 -143 32
-35 58 -37 155 -15 65 16 138 23 247 26 143 4 196 0 670 -56 283 -34 525 -61
538 -61 13 0 37 13 53 29 37 37 39 88 6 127 -23 27 -24 27 -558 90 -430 51
-560 63 -669 62 -74 -1 -151 -3 -170 -5z"/>
<path d="M3040 2200 c-84 -12 -207 -39 -238 -53 -25 -11 -52 -54 -52 -82 0
-30 29 -72 58 -84 24 -10 46 -8 128 9 60 13 154 23 239 27 128 4 185 -1 655
-56 283 -34 531 -61 551 -61 78 0 120 100 65 155 -29 29 6 24 -566 91 -489 58
-709 72 -840 54z"/>
</g>
</svg>
